<?xml version="1.0" encoding="UTF-8"?>
<svg id="Layer_1" data-name="Layer 1" xmlns="http://www.w3.org/2000/svg" viewBox="0 0 1358.6 1358.6">
  <defs>
    <style>
      .cls-1 {
        fill: #ffebeb;
      }

      .cls-1, .cls-2, .cls-3 {
        stroke-width: 0px;
      }

      .cls-2 {
        fill: #ff7b7b;
      }

      .cls-3 {
        fill: #261010;
      }
    </style>
  </defs>
  <rect class="cls-1" y="0" width="1358.6" height="1358.6"/>
  <path class="cls-2" d="M891.52,609.9l-19.38-130.76-16.87,22.73c4.1,6.25,6.48,13.71,6.48,21.72,0,21.91-17.83,39.74-39.74,39.74s-39.75-17.83-39.75-39.74,17.83-39.74,39.75-39.74c6.62,0,12.88,1.63,18.38,4.51l19.97-26.9c-2.33-1.01-4.87-1.54-7.43-1.54-.91,0-1.83.07-2.74.2l-133.83,19.76c-11.9,1.76-22.24,7.82-29.1,17.07l-231.07,311.31c-4.6,6.2-6.52,13.82-5.39,21.46,1.14,7.63,5.17,14.37,11.37,18.97l149.93,111.29c12.79,9.49,30.93,6.81,40.43-5.98l231.07-311.31c6.87-9.26,9.68-20.9,7.92-32.79Z"/>
  <path class="cls-3" d="M960.3,343.59c-4.43-3.3-10.7-2.37-13.99,2.07l-73.87,99.53c-7.53-4.38-16.38-6.16-25.18-4.85l-133.82,19.76c-17.19,2.54-32.19,11.39-42.24,24.93l-231.07,311.31c-7.79,10.49-11.02,23.38-9.11,36.3,1.91,12.92,8.74,24.33,19.23,32.11l149.93,111.29c8.74,6.49,18.95,9.61,29.08,9.61,14.96,0,29.74-6.82,39.33-19.73l231.07-311.31c10.06-13.55,14.19-30.47,11.64-47.65l-19.83-133.83c-.73-4.85-2.34-9.46-4.75-13.63l75.65-101.92c3.29-4.44,2.37-10.7-2.07-13.99ZM891.52,609.9c1.76,11.89-1.05,23.53-7.92,32.79l-231.07,311.31c-9.5,12.79-27.64,15.47-40.43,5.98l-149.93-111.29c-6.2-4.6-10.23-11.34-11.37-18.97-1.13-7.64.79-15.26,5.39-21.46l231.07-311.31c6.86-9.25,17.2-15.31,29.1-17.07l133.83-19.76c.91-.13,1.83-.2,2.74-.2,2.56,0,5.1.53,7.43,1.54l-19.97,26.9c-5.5-2.88-11.76-4.51-18.38-4.51-21.92,0-39.75,17.83-39.75,39.74s17.83,39.74,39.75,39.74,39.74-17.83,39.74-39.74c0-8.01-2.38-15.47-6.48-21.72l16.87-22.73,19.38,130.76ZM841.75,523.59c0,10.88-8.86,19.74-19.74,19.74s-19.75-8.86-19.75-19.74,8.86-19.74,19.75-19.74,19.74,8.86,19.74,19.74Z"/>
  <path class="cls-3" d="M694.48,808.34c-4.27,0-8.22-2.76-9.55-7.05l-49.57-160.28c-1.63-5.28,1.32-10.88,6.6-12.51,5.28-1.63,10.88,1.32,12.51,6.6l49.57,160.28c1.63,5.28-1.32,10.88-6.6,12.51-.98.3-1.98.45-2.96.45Z"/>
  <path class="cls-3" d="M739.2,757.94c-21.91,0-39.74-17.83-39.74-39.74s17.83-39.74,39.74-39.74,39.74,17.83,39.74,39.74-17.83,39.74-39.74,39.74ZM739.2,698.46c-10.89,0-19.74,8.86-19.74,19.74s8.86,19.74,19.74,19.74,19.74-8.86,19.74-19.74-8.86-19.74-19.74-19.74Z"/>
  <path class="cls-3" d="M600.2,757.94c-21.91,0-39.74-17.83-39.74-39.74s17.83-39.74,39.74-39.74,39.74,17.83,39.74,39.74-17.83,39.74-39.74,39.74ZM600.2,698.46c-10.89,0-19.74,8.86-19.74,19.74s8.86,19.74,19.74,19.74,19.74-8.86,19.74-19.74-8.86-19.74-19.74-19.74Z"/>
</svg>