<?xml version="1.0" encoding="UTF-8"?>
<svg id="Layer_1" data-name="Layer 1" xmlns="http://www.w3.org/2000/svg" viewBox="0 0 1358.6 1358.6">
  <defs>
    <style>
      .cls-1 {
        fill: #33060a;
      }

      .cls-1, .cls-2 {
        stroke-width: 0px;
      }

      .cls-2 {
        fill: #f5d0d3;
      }
    </style>
  </defs>
  <g>
    <path class="cls-1" d="M441.27,581.97c0,.18,0,.37-.01.55v-1.1c.01.18.01.37.01.55Z"/>
    <path class="cls-1" d="M928.53,765.99h-1.1c.18-.01.37-.01.55-.01s.37,0,.55.01Z"/>
  </g>
  <path class="cls-1" d="M1027.73,471.58H430.62c-5.87,0-10.64,4.77-10.64,10.64v89.11h-89.11c-5.88,0-10.64,4.76-10.64,10.64v294.41c0,5.87,4.76,10.64,10.64,10.64h597.11c5.87,0,10.64-4.77,10.64-10.64v-89.11h89.11c5.88,0,10.64-4.77,10.64-10.64v-294.41c0-5.87-4.76-10.64-10.64-10.64ZM917.33,865.73H341.51v-273.12h78.47v184.02c0,5.87,4.77,10.64,10.64,10.64h486.71v78.46ZM1017.09,765.99H441.26v-273.12h575.83v273.12Z"/>
  <path class="cls-2" d="M441.26,492.87v88.55c.01.18.01.37.01.55s0,.37-.01.55v183.47h486.17c.18-.01.37-.01.55-.01s.37,0,.55.01h88.56v-273.12H441.26ZM784.18,637.31h-47.12v47.12c0,4.36-3.53,7.89-7.88,7.89s-7.89-3.53-7.89-7.89v-47.12h-47.12c-4.35,0-7.88-3.53-7.88-7.88s3.53-7.89,7.88-7.89h47.12v-47.12c0-4.35,3.53-7.88,7.89-7.88s7.88,3.53,7.88,7.88v47.12h47.12c4.36,0,7.89,3.53,7.89,7.89s-3.53,7.88-7.89,7.88Z"/>
  <path class="cls-1" d="M792.07,629.43c0,4.35-3.53,7.88-7.89,7.88h-47.12v47.12c0,4.36-3.53,7.89-7.88,7.89s-7.89-3.53-7.89-7.89v-47.12h-47.12c-4.35,0-7.88-3.53-7.88-7.88s3.53-7.89,7.88-7.89h47.12v-47.12c0-4.35,3.53-7.88,7.89-7.88s7.88,3.53,7.88,7.88v47.12h47.12c4.36,0,7.89,3.53,7.89,7.89Z"/>
  <path class="cls-2" d="M917.33,787.27v78.46H341.51v-273.12h78.47v184.02c0,5.87,4.77,10.64,10.64,10.64h486.71Z"/>
</svg>