<?xml version="1.0" encoding="UTF-8"?>
<svg id="Layer_1" data-name="Layer 1" xmlns="http://www.w3.org/2000/svg" viewBox="0 0 1358.6 1358.6">
  <defs>
    <style>
      .cls-1 {
        fill: #141b26;
      }

      .cls-1, .cls-2, .cls-3 {
        stroke-width: 0px;
      }

      .cls-2 {
        fill: #fec107;
      }

      .cls-3 {
        fill: #0bb8fc;
      }
    </style>
  </defs>
  <g>
    <path class="cls-2" d="M767.52,524.2l-17.49,17.49c-15.82-11.62-35.35-18.48-56.45-18.48-52.75,0-95.68,42.92-95.68,95.68,0,21.1,6.86,40.62,18.49,56.44l-17.51,17.51c-16-20.39-25.52-46.07-25.52-73.95,0-66.29,53.95-120.21,120.22-120.21,27.86,0,53.55,9.54,73.94,25.52Z"/>
    <path class="cls-2" d="M693.22,471.55s.08,0,.12,0c6.72,0,12.2-5.41,12.26-12.15l.49-49.61c.07-6.77-5.37-12.32-12.15-12.39-6.83-.07-12.32,5.37-12.39,12.15l-.49,49.61c-.07,6.77,5.37,12.32,12.15,12.39Z"/>
    <path class="cls-2" d="M602.89,486.82c2.25,3.99,6.41,6.24,10.69,6.24,2.04,0,4.11-.51,6.02-1.59,5.9-3.33,7.98-10.81,4.65-16.71l-24.38-43.2c-3.33-5.9-10.81-7.98-16.71-4.65-5.9,3.33-7.98,10.81-4.65,16.71l24.38,43.2Z"/>
    <path class="cls-2" d="M506.29,524.64l42.72,25.22c1.96,1.16,4.11,1.71,6.23,1.71,4.2,0,8.29-2.16,10.57-6.03,3.44-5.83,1.51-13.35-4.33-16.8l-42.72-25.22c-5.83-3.44-13.35-1.51-16.8,4.33-3.44,5.83-1.51,13.35,4.33,16.8Z"/>
    <path class="cls-2" d="M533.98,631.4c6.72,0,12.2-5.41,12.26-12.15.07-6.77-5.37-12.32-12.15-12.39l-49.61-.49s-.08,0-.12,0c-6.72,0-12.2,5.41-12.26,12.15-.07,6.77,5.37,12.32,12.15,12.39l49.61.49s.08,0,.12,0Z"/>
    <path class="cls-2" d="M518.31,733.96l43.2-24.38c5.9-3.33,7.98-10.81,4.65-16.71-3.33-5.9-10.81-7.98-16.71-4.65l-43.2,24.38c-5.9,3.33-7.98,10.81-4.65,16.71,2.26,3.99,6.41,6.24,10.69,6.24,2.04,0,4.11-.51,6.02-1.59Z"/>
    <path class="cls-2" d="M766.93,491.11c1.96,1.16,4.11,1.71,6.23,1.71,4.2,0,8.29-2.16,10.57-6.03l25.22-42.72c3.44-5.83,1.51-13.35-4.33-16.8-5.83-3.44-13.35-1.51-16.8,4.33l-25.22,42.72c-3.44,5.83-1.51,13.35,4.33,16.8Z"/>
  </g>
  <path class="cls-1" d="M884.28,483.05l-57.71,57.7-35.04,35.05-20.11,20.1-18.58,18.6-123.69,123.67-18.6,18.6-55.75,55.75-57.11,57.11c-2.72,2.72-6.3,4.09-9.88,4.09s-7.15-1.37-9.88-4.09c-5.45-5.47-5.45-14.31,0-19.76l108.69-108.69,17.43-17.43,260.47-260.47c5.46-5.46,14.31-5.46,19.76,0,5.46,5.45,5.46,14.32,0,19.77Z"/>
  <g>
    <path class="cls-3" d="M601.93,801.47l-1.58,69.05c-.16,6.68-5.61,11.99-12.26,11.99h-.28c-6.78-.17-12.15-5.77-11.99-12.55l1-43.38,25.11-25.11Z"/>
    <path class="cls-3" d="M894.86,835.66c-2.27,3.95-6.39,6.14-10.64,6.14-2.08,0-4.19-.53-6.12-1.63l-65.9-38.05,1.57,67.84c.15,6.78-5.21,12.38-11.99,12.55h-.28c-6.64,0-12.1-5.31-12.26-11.99l-1.9-82.76-80.28-46.35v92.7l70.72,43.02c5.79,3.52,7.63,11.07,4.11,16.86-3.52,5.78-11.07,7.63-16.85,4.1l-57.98-35.27v76.08c0,6.78-5.49,12.27-12.27,12.27s-12.27-5.49-12.27-12.27v-76.08l-57.97,35.27c-1.98,1.22-4.19,1.79-6.36,1.79-4.15,0-8.19-2.09-10.49-5.89-3.53-5.79-1.68-13.34,4.11-16.86l70.71-43.02v-92.7l-48.56,28.04,73.1-70.54,80.28-46.34.86-37.35,1.37-1.37,23.75-23.77-1.12,48.14,65.9-38.05c5.87-3.39,13.37-1.38,16.76,4.49,3.38,5.87,1.38,13.36-4.49,16.76l-65.9,38.04,59.54,32.58c5.94,3.24,8.12,10.7,4.86,16.64-2.22,4.07-6.42,6.37-10.76,6.37-1.99,0-4.01-.47-5.88-1.51l-72.62-39.73-80.29,46.36,80.29,46.34,72.62-39.73c5.94-3.26,13.4-1.08,16.64,4.86,3.26,5.96,1.08,13.41-4.86,16.66l-59.54,32.57,65.9,38.05c5.87,3.38,7.87,10.89,4.49,16.74Z"/>
  </g>
</svg>