<?xml version="1.0" encoding="UTF-8"?>
<svg id="Layer_1" data-name="Layer 1" xmlns="http://www.w3.org/2000/svg" viewBox="0 0 1358.6 1358.6">
  <defs>
    <style>
      .cls-1 {
        fill: #1f3a35;
      }

      .cls-1, .cls-2 {
        stroke-width: 0px;
      }

      .cls-2 {
        fill: #e9fffb;
      }
    </style>
  </defs>
  <path class="cls-1" d="M838.66,456.81h-43.12v-16.56c0-20.16-16.4-36.56-36.56-36.56h-159.36c-20.16,0-36.56,16.4-36.56,36.56v16.56h-43.12c-34.81,0-63.13,28.32-63.13,63.13v371.85c0,34.8,28.32,63.12,63.13,63.12h318.72c34.81,0,63.13-28.32,63.13-63.12v-371.85c0-34.81-28.32-63.13-63.13-63.13ZM583.06,440.25c0-9.13,7.43-16.56,16.56-16.56h159.36c9.13,0,16.56,7.43,16.56,16.56v53.12c0,9.14-7.43,16.57-16.56,16.57h-159.36c-9.13,0-16.56-7.43-16.56-16.57v-53.12ZM881.79,891.79c0,23.77-19.35,43.12-43.13,43.12h-318.72c-23.78,0-43.13-19.35-43.13-43.12v-371.85c0-23.78,19.35-43.13,43.13-43.13h43.12v16.56c0,20.16,16.4,36.57,36.56,36.57h159.36c20.16,0,36.56-16.41,36.56-36.57v-16.56h43.12c23.78,0,43.13,19.35,43.13,43.13v371.85Z"/>
  <path class="cls-2" d="M838.66,476.81h-43.12v16.56c0,20.16-16.4,36.57-36.56,36.57h-159.36c-20.16,0-36.56-16.41-36.56-36.57v-16.56h-43.12c-23.78,0-43.13,19.35-43.13,43.13v371.85c0,23.77,19.35,43.12,43.13,43.12h318.72c23.78,0,43.13-19.35,43.13-43.12v-371.85c0-23.78-19.35-43.13-43.13-43.13ZM573.32,799.04h-.26c-7.46,0-13.5-6.04-13.5-13.5s6.04-13.5,13.5-13.5h.26c7.46,0,13.5,6.05,13.5,13.5s-6.04,13.5-13.5,13.5ZM573.32,666.24h-.26c-7.46,0-13.5-6.04-13.5-13.5s6.04-13.5,13.5-13.5h.26c7.46,0,13.5,6.04,13.5,13.5s-6.04,13.5-13.5,13.5ZM785.54,799.04h-106.24c-7.46,0-13.5-6.04-13.5-13.5s6.04-13.5,13.5-13.5h106.24c7.46,0,13.5,6.05,13.5,13.5s-6.04,13.5-13.5,13.5ZM785.54,666.24h-106.24c-7.46,0-13.5-6.04-13.5-13.5s6.04-13.5,13.5-13.5h106.24c7.46,0,13.5,6.04,13.5,13.5s-6.04,13.5-13.5,13.5Z"/>
  <path class="cls-1" d="M799.04,652.74c0,7.46-6.04,13.5-13.5,13.5h-106.24c-7.46,0-13.5-6.04-13.5-13.5s6.04-13.5,13.5-13.5h106.24c7.46,0,13.5,6.04,13.5,13.5Z"/>
  <path class="cls-1" d="M799.04,785.54c0,7.46-6.04,13.5-13.5,13.5h-106.24c-7.46,0-13.5-6.04-13.5-13.5s6.04-13.5,13.5-13.5h106.24c7.46,0,13.5,6.05,13.5,13.5Z"/>
  <path class="cls-1" d="M586.82,652.74c0,7.46-6.04,13.5-13.5,13.5h-.26c-7.46,0-13.5-6.04-13.5-13.5s6.04-13.5,13.5-13.5h.26c7.46,0,13.5,6.04,13.5,13.5Z"/>
  <path class="cls-1" d="M586.82,785.54c0,7.46-6.04,13.5-13.5,13.5h-.26c-7.46,0-13.5-6.04-13.5-13.5s6.04-13.5,13.5-13.5h.26c7.46,0,13.5,6.05,13.5,13.5Z"/>
</svg>