<?xml version="1.0" encoding="UTF-8"?>
<svg id="Layer_1" data-name="Layer 1" xmlns="http://www.w3.org/2000/svg" viewBox="0 0 1358.6 1358.6">
  <defs>
    <style>
      .cls-1 {
        fill: #44233e;
      }

      .cls-1, .cls-2 {
        stroke-width: 0px;
      }

      .cls-2 {
        fill: #ffe6f9;
      }
    </style>
  </defs>
  <path class="cls-1" d="M538.27,344.74h-192.86c-3.67,0-6.65,2.97-6.65,6.64v192.86c0,3.67,2.98,6.65,6.65,6.65h192.86c3.67,0,6.64-2.98,6.64-6.65v-192.86c0-3.67-2.97-6.64-6.64-6.64ZM531.62,537.59h-179.56v-179.56h179.56v179.56Z"/>
  <path class="cls-2" d="M352.06,358.03v179.56h179.56v-179.56h-179.56ZM488.24,454.46h-39.75v39.75c0,3.67-2.98,6.65-6.65,6.65s-6.65-2.98-6.65-6.65v-39.75h-39.75c-3.67,0-6.65-2.98-6.65-6.65s2.98-6.65,6.65-6.65h39.75v-39.75c0-3.67,2.98-6.64,6.65-6.64s6.65,2.97,6.65,6.64v39.75h39.75c3.67,0,6.64,2.98,6.64,6.65s-2.97,6.65-6.64,6.65Z"/>
  <path class="cls-1" d="M744.84,403.63h-133.96c-3.67,0-6.64,2.98-6.64,6.65v133.96c0,3.67,2.97,6.65,6.64,6.65h133.96c3.68,0,6.65-2.98,6.65-6.65v-133.96c0-3.67-2.97-6.65-6.65-6.65ZM738.19,537.59h-120.66v-120.66h120.66v120.66Z"/>
  <rect class="cls-2" x="617.53" y="416.93" width="120.66" height="120.66"/>
  <path class="cls-1" d="M951.42,403.63h-133.96c-3.67,0-6.65,2.98-6.65,6.65v133.96c0,3.67,2.98,6.65,6.65,6.65h133.96c3.67,0,6.65-2.98,6.65-6.65v-133.96c0-3.67-2.98-6.65-6.65-6.65ZM944.77,537.59h-120.66v-120.66h120.66v120.66Z"/>
  <rect class="cls-2" x="824.11" y="416.93" width="120.66" height="120.66"/>
  <path class="cls-1" d="M538.27,605.27h-133.96c-3.67,0-6.65,2.98-6.65,6.65v133.96c0,3.67,2.98,6.65,6.65,6.65h133.96c3.67,0,6.64-2.98,6.64-6.65v-133.96c0-3.67-2.97-6.65-6.64-6.65ZM531.62,739.23h-120.66v-120.66h120.66v120.66Z"/>
  <rect class="cls-2" x="410.96" y="618.57" width="120.66" height="120.66"/>
  <path class="cls-1" d="M744.84,605.27h-133.96c-3.67,0-6.64,2.98-6.64,6.65v133.96c0,3.67,2.97,6.65,6.64,6.65h133.96c3.68,0,6.65-2.98,6.65-6.65v-133.96c0-3.67-2.97-6.65-6.65-6.65ZM738.19,739.23h-120.66v-120.66h120.66v120.66Z"/>
  <rect class="cls-2" x="617.53" y="618.57" width="120.66" height="120.66"/>
  <path class="cls-1" d="M951.42,605.27h-133.96c-3.67,0-6.65,2.98-6.65,6.65v133.96c0,3.67,2.98,6.65,6.65,6.65h133.96c3.67,0,6.65-2.98,6.65-6.65v-133.96c0-3.67-2.98-6.65-6.65-6.65ZM944.77,739.23h-120.66v-120.66h120.66v120.66Z"/>
  <rect class="cls-2" x="824.11" y="618.57" width="120.66" height="120.66"/>
  <path class="cls-1" d="M538.27,806.92h-133.96c-3.67,0-6.65,2.97-6.65,6.65v133.95c0,3.68,2.98,6.65,6.65,6.65h133.96c3.67,0,6.64-2.97,6.64-6.65v-133.95c0-3.68-2.97-6.65-6.64-6.65ZM531.62,940.87h-120.66v-120.66h120.66v120.66Z"/>
  <rect class="cls-2" x="410.96" y="820.21" width="120.66" height="120.66"/>
  <path class="cls-1" d="M744.84,806.92h-133.96c-3.67,0-6.64,2.97-6.64,6.65v133.95c0,3.68,2.97,6.65,6.64,6.65h133.96c3.68,0,6.65-2.97,6.65-6.65v-133.95c0-3.68-2.97-6.65-6.65-6.65ZM738.19,940.87h-120.66v-120.66h120.66v120.66Z"/>
  <rect class="cls-2" x="617.53" y="820.21" width="120.66" height="120.66"/>
  <path class="cls-1" d="M951.42,806.92h-133.96c-3.67,0-6.65,2.97-6.65,6.65v133.95c0,3.68,2.98,6.65,6.65,6.65h133.96c3.67,0,6.65-2.97,6.65-6.65v-133.95c0-3.68-2.98-6.65-6.65-6.65ZM944.77,940.87h-120.66v-120.66h120.66v120.66Z"/>
  <rect class="cls-2" x="824.11" y="820.21" width="120.66" height="120.66"/>
  <path class="cls-1" d="M494.88,447.81c0,3.67-2.97,6.65-6.64,6.65h-39.75v39.75c0,3.67-2.98,6.65-6.65,6.65s-6.65-2.98-6.65-6.65v-39.75h-39.75c-3.67,0-6.65-2.98-6.65-6.65s2.98-6.65,6.65-6.65h39.75v-39.75c0-3.67,2.98-6.64,6.65-6.64s6.65,2.97,6.65,6.64v39.75h39.75c3.67,0,6.64,2.98,6.64,6.65Z"/>
</svg>