<?xml version="1.0" encoding="UTF-8"?>
<svg id="Layer_1" data-name="Layer 1" xmlns="http://www.w3.org/2000/svg" viewBox="0 0 1358.6 1358.6">
  <defs>
    <style>
      .cls-1 {
        fill: #1f3a35;
      }

      .cls-1, .cls-2 {
        stroke-width: 0px;
      }

      .cls-2 {
        fill: #e9fffb;
      }
    </style>
  </defs>
  <rect class="cls-2" y="0" width="1358.6" height="1358.6"/>
  <g>
    <path class="cls-1" d="M838.78,454.6h-41.11v-14.53c0-21.3-17.33-38.63-38.63-38.63h-159.48c-21.3,0-38.63,17.33-38.63,38.63v14.53h-41.11c-35.96,0-65.21,29.25-65.21,65.21v372.13c0,35.96,29.25,65.21,65.21,65.21h318.97c35.96,0,65.21-29.25,65.21-65.21v-372.13c0-35.96-29.25-65.21-65.21-65.21ZM585.03,440.08c0-8.01,6.52-14.53,14.53-14.53h159.48c8.01,0,14.53,6.52,14.53,14.53v53.16c0,8.01-6.52,14.53-14.53,14.53h-159.48c-8.01,0-14.53-6.52-14.53-14.53v-53.16ZM879.89,891.94c0,22.67-18.44,41.11-41.11,41.11h-318.97c-22.67,0-41.11-18.44-41.11-41.11v-372.13c0-22.67,18.44-41.11,41.11-41.11h41.11v14.53c0,21.3,17.33,38.63,38.63,38.63h159.48c21.3,0,38.63-17.33,38.63-38.63v-14.53h41.11c22.67,0,41.11,18.44,41.11,41.11v372.13Z"/>
    <path class="cls-1" d="M750.52,670.78l-97.8,97.8-44.64-44.64c-4.71-4.71-12.34-4.71-17.04,0s-4.71,12.34,0,17.04l53.16,53.16c2.35,2.35,5.44,3.53,8.52,3.53s6.17-1.18,8.52-3.53l106.32-106.32c4.71-4.71,4.71-12.34,0-17.04s-12.34-4.71-17.04,0Z"/>
  </g>
</svg>