<?xml version="1.0" encoding="UTF-8"?>
<svg id="Layer_1" data-name="Layer 1" xmlns="http://www.w3.org/2000/svg" viewBox="0 0 1358.6 1358.6">
  <defs>
    <style>
      .cls-1 {
        fill: #deeaf6;
      }

      .cls-1, .cls-2, .cls-3, .cls-4, .cls-5 {
        stroke-width: 0px;
      }

      .cls-2 {
        fill: #fea541;
      }

      .cls-3 {
        fill: #141b26;
      }

      .cls-4 {
        fill: #fec107;
      }

      .cls-5 {
        fill: #ffbccd;
      }
    </style>
  </defs>
  <rect class="cls-1" width="1358.6" height="1358.6"/>
  <g>
    <path class="cls-4" d="M543.39,475.84c0,37.75-30.71,68.46-68.46,68.46s-68.46-30.71-68.46-68.46,30.72-68.46,68.46-68.46,68.46,30.71,68.46,68.46Z"/>
    <g>
      <path class="cls-3" d="M474.93,389.83c-47.42,0-86.01,38.58-86.01,86.01s38.59,86.01,86.01,86.01,86.01-38.58,86.01-86.01-38.58-86.01-86.01-86.01ZM474.93,544.3c-37.74,0-68.46-30.71-68.46-68.46s30.72-68.46,68.46-68.46,68.46,30.71,68.46,68.46-30.71,68.46-68.46,68.46Z"/>
      <path class="cls-3" d="M474.77,370.42s-.06,0-.09,0c-4.85-.05-8.74-4.02-8.69-8.86l.35-35.5c.05-4.85,3.98-8.74,8.86-8.69,4.85.05,8.74,4.02,8.69,8.86l-.35,35.5c-.05,4.82-3.97,8.69-8.77,8.69Z"/>
      <path class="cls-3" d="M417.7,385.81c-3.06,0-6.04-1.61-7.65-4.46l-17.45-30.91c-2.38-4.22-.89-9.57,3.33-11.96,4.22-2.38,9.57-.89,11.96,3.33l17.45,30.91c2.38,4.22.89,9.57-3.33,11.96-1.36.77-2.84,1.13-4.31,1.13Z"/>
      <path class="cls-3" d="M375.95,427.67c-1.52,0-3.05-.39-4.45-1.22l-30.57-18.05c-4.17-2.46-5.56-7.85-3.1-12.02,2.47-4.17,7.85-5.56,12.02-3.1l30.57,18.05c4.17,2.46,5.56,7.85,3.1,12.02-1.64,2.77-4.56,4.32-7.57,4.32Z"/>
      <path class="cls-3" d="M360.74,484.79s-.06,0-.09,0l-35.5-.35c-4.85-.05-8.74-4.02-8.69-8.86.05-4.82,3.97-8.69,8.77-8.69.03,0,.06,0,.09,0l35.5.35c4.85.05,8.74,4.02,8.69,8.86-.05,4.82-3.97,8.69-8.77,8.69Z"/>
      <path class="cls-3" d="M345.22,559.32c-3.06,0-6.04-1.61-7.65-4.46-2.38-4.22-.89-9.57,3.33-11.96l30.91-17.45c4.22-2.38,9.57-.89,11.96,3.33,2.38,4.22.89,9.57-3.33,11.96l-30.91,17.45c-1.36.77-2.84,1.13-4.31,1.13Z"/>
      <path class="cls-3" d="M399.93,614.17c-1.52,0-3.05-.39-4.45-1.22-4.17-2.46-5.56-7.85-3.1-12.02l18.05-30.57c2.47-4.17,7.85-5.56,12.02-3.1,4.17,2.46,5.56,7.85,3.1,12.02l-18.05,30.57c-1.64,2.77-4.56,4.32-7.57,4.32Z"/>
      <path class="cls-3" d="M474.77,634.31s-.06,0-.09,0c-4.85-.05-8.74-4.02-8.69-8.86l.35-35.5c.05-4.82,3.97-8.69,8.77-8.69.03,0,.06,0,.09,0,4.85.05,8.74,4.02,8.69,8.86l-.35,35.5c-.05,4.82-3.97,8.69-8.77,8.69Z"/>
      <path class="cls-3" d="M549.64,614.34c-3.06,0-6.04-1.61-7.65-4.46l-17.45-30.91c-2.38-4.22-.89-9.57,3.33-11.96,4.22-2.38,9.57-.89,11.96,3.33l17.45,30.91c2.38,4.22.89,9.57-3.33,11.96-1.36.77-2.84,1.13-4.31,1.13Z"/>
      <path class="cls-3" d="M604.48,559.62c-1.52,0-3.05-.39-4.45-1.22l-30.57-18.05c-4.17-2.46-5.56-7.85-3.1-12.02,2.47-4.17,7.85-5.56,12.02-3.1l30.57,18.05c4.17,2.46,5.56,7.85,3.1,12.02-1.64,2.77-4.56,4.32-7.57,4.32Z"/>
      <path class="cls-3" d="M624.63,484.79s-.06,0-.09,0l-35.5-.35c-4.85-.05-8.74-4.02-8.69-8.86.05-4.85,4.03-8.77,8.86-8.69l35.5.35c4.85.05,8.74,4.02,8.69,8.86-.05,4.82-3.97,8.69-8.77,8.69Z"/>
      <path class="cls-3" d="M573.76,427.37c-3.06,0-6.04-1.61-7.65-4.46-2.38-4.22-.89-9.57,3.33-11.96l30.91-17.45c4.22-2.38,9.57-.89,11.96,3.33,2.38,4.22.89,9.57-3.33,11.96l-30.91,17.45c-1.36.77-2.84,1.13-4.31,1.13Z"/>
      <path class="cls-3" d="M531.88,385.64c-1.52,0-3.05-.39-4.45-1.22-4.17-2.46-5.56-7.85-3.1-12.02l18.05-30.57c2.47-4.17,7.85-5.56,12.02-3.1,4.17,2.46,5.56,7.85,3.1,12.02l-18.05,30.57c-1.64,2.77-4.56,4.32-7.57,4.32Z"/>
    </g>
    <path class="cls-3" d="M1025.35,546.5l-47.15-27.22,42.6-23.31c4.25-2.33,5.81-7.66,3.49-11.91-2.33-4.25-7.66-5.81-11.91-3.49l-51.97,28.43-57.44-33.16,57.44-33.16,51.97,28.43c1.34.73,2.78,1.08,4.2,1.08,3.1,0,6.11-1.65,7.71-4.57,2.33-4.25.77-9.59-3.49-11.91l-42.6-23.31,47.15-27.22c4.2-2.42,5.64-7.79,3.21-11.99-2.42-4.2-7.79-5.64-11.99-3.21l-47.15,27.22,1.11-48.54c.11-4.85-3.73-8.87-8.57-8.98-4.84-.12-8.87,3.73-8.98,8.57l-1.36,59.22-57.44,33.16v-66.33l50.61-30.79c4.14-2.52,5.46-7.92,2.94-12.06-2.52-4.14-7.92-5.46-12.06-2.94l-41.48,25.24v-54.44c0-4.85-3.93-8.78-8.78-8.78s-8.78,3.93-8.78,8.78v54.44l-41.48-25.24c-4.14-2.52-9.54-1.21-12.06,2.94-2.52,4.14-1.2,9.54,2.94,12.06l50.61,30.79v66.33l-57.44-33.16-1.36-59.22c-.11-4.85-4.15-8.69-8.98-8.57-4.85.11-8.68,4.13-8.57,8.98l1.11,48.54-47.15-27.22c-4.2-2.42-9.57-.99-11.99,3.21s-.99,9.57,3.21,11.99l47.15,27.22-42.6,23.31c-4.25,2.33-5.81,7.66-3.49,11.91,1.6,2.92,4.6,4.57,7.71,4.57,1.42,0,2.87-.35,4.2-1.08l51.97-28.43,57.44,33.16-57.44,33.16-51.97-28.43c-4.25-2.33-9.59-.77-11.91,3.49-2.33,4.25-.77,9.59,3.49,11.91l42.6,23.31-47.15,27.22c-4.2,2.42-5.64,7.79-3.21,11.99,1.63,2.82,4.58,4.39,7.61,4.39,1.49,0,3-.38,4.38-1.18l47.15-27.22-1.11,48.54c-.11,4.85,3.73,8.87,8.57,8.98.07,0,.14,0,.21,0,4.75,0,8.66-3.8,8.77-8.58l1.36-59.22,57.44-33.16v66.33l-50.61,30.79c-4.14,2.52-5.46,7.92-2.94,12.06,1.65,2.72,4.54,4.22,7.51,4.22,1.55,0,3.13-.41,4.55-1.28l41.48-25.24v54.44c0,4.85,3.93,8.78,8.78,8.78s8.78-3.93,8.78-8.78v-54.44l41.48,25.24c4.14,2.52,9.54,1.21,12.06-2.94,2.52-4.14,1.2-9.54-2.94-12.06l-50.61-30.79v-66.33l57.44,33.16,1.36,59.22c.11,4.78,4.02,8.58,8.77,8.58.07,0,.14,0,.21,0,4.85-.11,8.68-4.13,8.57-8.98l-1.11-48.54,47.15,27.22c1.38.8,2.89,1.18,4.38,1.18,3.03,0,5.98-1.57,7.61-4.39,2.42-4.2.99-9.57-3.21-11.99Z"/>
    <path class="cls-2" d="M557.21,961.62l9.07,17.88-124.63,31.07-24.81-54.08,4.94-4.94,68.36,24.27c.97.34,1.96.51,2.93.51,3.62,0,7-2.25,8.28-5.85,1.61-4.57-.77-9.58-5.34-11.21l-60.48-21.48,12.27-12.26,80.75,24.58c.85.25,1.71.39,2.56.39,3.77,0,7.24-2.44,8.39-6.22,1.41-4.64-1.2-9.55-5.84-10.95l-71.79-21.86,15.85-15.85,52.08,7.82c.44.07.88.1,1.32.1,4.27,0,8.01-3.12,8.67-7.47.72-4.79-2.59-9.26-7.38-9.99l-39.25-5.9,29.81-29.81c3.42-3.43,3.42-8.99,0-12.42-3.43-3.42-8.99-3.42-12.42,0l-29.94,29.95-6.95-43.57c-.76-4.78-5.27-8.05-10.05-7.28-4.79.76-8.05,5.27-7.28,10.05l8.94,56.14-15.8,15.8-21.87-72.35c-1.4-4.64-6.3-7.26-10.94-5.86-4.63,1.4-7.26,6.3-5.85,10.94l24.59,81.34-12.03,12.03-19.96-60.35c-1.52-4.6-6.49-7.09-11.09-5.57-4.61,1.52-7.1,6.49-5.58,11.09l22.73,68.74-5.09,5.09-54.37-24.2,29.24-125.1,18,8.79c4.21,2.05,9.29.45,11.55-3.66l13.66-24.9c.14,2.67,1.48,5.16,3.7,6.72,2.62,1.85,6.04,2.12,8.92.72l13.91-6.8.45,30.24c.04,2.78,1.4,5.38,3.66,7,2.26,1.61,5.15,2.07,7.79,1.22,1.66-.53,36.72-12.04,50.74-37.11,11.42,4.83,33.04,12.31,58.77,13.06.93,25.19,7.6,45.68,11.95,56.58-25.03,14.29-36.11,49.76-36.62,51.43-.81,2.66-.31,5.55,1.34,7.78,1.66,2.24,4.27,3.55,7.06,3.55h30.24l-6.59,14.02c-1.36,2.9-1.04,6.31.84,8.9,1.61,2.19,4.12,3.51,6.78,3.61l-24.69,14.02c-4.08,2.32-5.62,7.43-3.5,11.6Z"/>
    <path class="cls-3" d="M636.57,918.98c-1.33-3.98-5.28-6.45-9.44-5.92l-26.65,3.42,5.67-12.04c1.28-2.72,1.08-5.91-.54-8.44-1.61-2.54-4.41-4.07-7.41-4.07h-31.19c5.73-12.23,15.91-28.11,29.53-32.39,2.47-.78,4.47-2.62,5.47-5,.99-2.39.88-5.11-.31-7.41-.14-.28-14.56-28.73-13.84-65.62.04-2.41-.9-4.73-2.62-6.42-1.71-1.69-4.05-2.61-6.46-2.52-36.75,1.27-67.17-14.82-67.47-14.97-2.32-1.26-5.09-1.4-7.53-.39-2.44,1.02-4.29,3.07-5.05,5.61-4.08,13.68-19.81,24.09-31.96,30.01l-.46-31.19c-.04-3-1.62-5.78-4.19-7.36-2.56-1.57-5.75-1.72-8.44-.4l-11.96,5.85,3.03-26.69c.47-4.17-2.06-8.08-6.06-9.36-3.99-1.26-8.33.47-10.35,4.14l-30.93,56.37-20.37-9.95c-2.4-1.18-5.2-1.19-7.62-.04-2.41,1.15-4.18,3.33-4.78,5.93l-33.4,142.89c-.96,4.1,1.13,8.3,4.98,10.01l54.85,24.41-75.65,75.65c-3.43,3.42-3.43,8.99,0,12.41,1.71,1.71,3.96,2.57,6.21,2.57s4.49-.86,6.21-2.57l75.75-75.75,25.14,54.78c1.46,3.18,4.61,5.12,7.98,5.12.7,0,1.41-.09,2.12-.26l142.38-35.49c2.6-.65,4.75-2.44,5.86-4.87,1.11-2.43,1.05-5.23-.16-7.62l-10.25-20.23,55.91-31.75c3.65-2.07,5.32-6.43,3.99-10.42ZM560.72,950.02c-4.08,2.32-5.62,7.43-3.5,11.6l9.07,17.88-124.63,31.07-24.81-54.08,4.94-4.94,68.36,24.27c.97.34,1.96.51,2.93.51,3.62,0,7-2.25,8.28-5.85,1.61-4.57-.77-9.58-5.34-11.21l-60.48-21.48,12.27-12.26,80.75,24.58c.85.25,1.71.39,2.56.39,3.77,0,7.24-2.44,8.39-6.22,1.41-4.64-1.2-9.55-5.84-10.95l-71.79-21.86,15.85-15.85,52.08,7.82c.44.07.88.1,1.32.1,4.27,0,8.01-3.12,8.67-7.47.72-4.79-2.59-9.26-7.38-9.99l-39.25-5.9,29.81-29.81c3.42-3.43,3.42-8.99,0-12.42-3.43-3.42-8.99-3.42-12.42,0l-29.94,29.95-6.95-43.57c-.76-4.78-5.27-8.05-10.05-7.28-4.79.76-8.05,5.27-7.28,10.05l8.94,56.14-15.8,15.8-21.87-72.35c-1.4-4.64-6.3-7.26-10.94-5.86-4.63,1.4-7.26,6.3-5.85,10.94l24.59,81.34-12.03,12.03-19.96-60.35c-1.52-4.6-6.49-7.09-11.09-5.57-4.61,1.52-7.1,6.49-5.58,11.09l22.73,68.74-5.09,5.09-54.37-24.2,29.24-125.1,18,8.79c4.21,2.05,9.29.45,11.55-3.66l13.66-24.9c.14,2.67,1.48,5.16,3.7,6.72,2.62,1.85,6.04,2.12,8.92.72l13.91-6.8.45,30.24c.04,2.78,1.4,5.38,3.66,7,2.26,1.61,5.15,2.07,7.79,1.22,1.66-.53,36.72-12.04,50.74-37.11,11.42,4.83,33.04,12.31,58.77,13.06.93,25.19,7.6,45.68,11.95,56.58-25.03,14.29-36.11,49.76-36.62,51.43-.81,2.66-.31,5.55,1.34,7.78,1.66,2.24,4.27,3.55,7.06,3.55h30.24l-6.59,14.02c-1.36,2.9-1.04,6.31.84,8.9,1.61,2.19,4.12,3.51,6.78,3.61l-24.69,14.02Z"/>
    <path class="cls-5" d="M1027.44,957.2c-8.1,21.83-35.77,20.68-36.9,20.63-2.54-.14-5,.81-6.78,2.62-1.78,1.81-2.69,4.3-2.48,6.83.58,7.49-.28,29.82-11.47,34.12-11.86,4.56-22.11,4.56-31.32.04-25.2-12.38-38.46-56.67-45.58-80.47-1.16-3.88-4.83-6.47-8.87-6.25-4.05.22-7.42,3.18-8.16,7.16-11.03,59.31-36.96,78.14-44.65,82.49-6.53,3.7-13.04,4.95-17.4,3.34-21.83-8.1-20.68-35.77-20.63-36.91.15-2.53-.81-4.99-2.62-6.78-1.65-1.61-3.87-2.51-6.16-2.51-.22,0-.45,0-.68.03-7.49.58-29.82-.27-34.12-11.46-4.56-11.86-4.56-22.11-.04-31.32,12.38-25.2,56.67-38.45,80.47-45.57,3.88-1.16,6.47-4.83,6.25-8.88-.22-4.05-3.18-7.42-7.16-8.15-59.31-11.04-78.13-36.97-82.49-44.65-3.7-6.54-4.95-13.04-3.34-17.4,8.11-21.83,35.76-20.68,36.91-20.63,2.53.14,5.01-.81,6.78-2.62,1.77-1.82,2.68-4.32,2.48-6.85-.61-7.48.18-29.78,11.46-34.11,11.86-4.55,22.11-4.56,31.32-.03,25.2,12.38,38.45,56.67,45.57,80.47,1.17,3.88,4.83,6.46,8.88,6.25,4.05-.22,7.42-3.18,8.15-7.16,11.04-59.31,36.97-78.14,44.65-82.49,6.54-3.7,13.04-4.95,17.4-3.34,21.83,8.1,20.68,35.76,20.63,36.91-.15,2.53.82,4.99,2.62,6.78,1.81,1.77,4.31,2.67,6.84,2.48,7.49-.59,29.81.27,34.12,11.46,4.56,11.88,4.6,22.08.13,31.18-11.95,24.31-54.48,37.04-79.89,44.65-3.88,1.16-6.46,4.83-6.25,8.87.22,4.05,3.18,7.42,7.16,8.16,56.73,10.56,75.96,34.8,81.6,44.74,3.92,6.92,5.25,13.78,3.55,18.37Z"/>
    <g>
      <path class="cls-3" d="M1039.17,930.17c-11.06-19.5-33.62-35.46-63.75-45.64,24.85-9.04,50.75-22.28,61.61-44.38,6.64-13.53,6.82-28.74.5-45.21-7.1-18.51-29.88-22.2-42.8-22.76-1.39-13.03-7.36-36.01-31.68-45.03-9.43-3.49-20.84-1.89-32.16,4.52-19.48,11.04-35.46,33.97-45.67,64.76-9.92-26.87-23.35-51.57-45.19-62.31-13.65-6.71-28.91-6.92-45.35-.61-18.51,7.1-22.21,29.88-22.77,42.8-13.03,1.39-36,7.36-45.03,31.68-3.49,9.43-1.89,20.84,4.53,32.16,11.04,19.48,33.97,35.46,64.76,45.67-26.87,9.93-51.56,23.35-62.31,45.19-6.71,13.65-6.91,28.91-.6,45.36,7.1,18.51,29.87,22.2,42.79,22.76,1.4,13.03,7.37,36,31.68,45.03,3.26,1.21,6.77,1.81,10.43,1.81,6.9,0,14.34-2.14,21.74-6.33,19.48-11.04,35.45-33.97,45.66-64.76,9.93,26.87,23.35,51.56,45.19,62.31,13.66,6.71,28.91,6.91,45.36.6,18.51-7.1,22.2-29.87,22.76-42.79,13.03-1.4,36.01-7.36,45.03-31.68,3.58-9.66,1.9-21.43-4.73-33.14ZM990.55,977.83c-2.54-.14-5,.81-6.78,2.62-1.78,1.81-2.69,4.3-2.48,6.83.58,7.49-.28,29.82-11.47,34.12-11.86,4.56-22.11,4.56-31.32.04-25.2-12.38-38.46-56.67-45.58-80.47-1.16-3.88-4.83-6.47-8.87-6.25-4.05.22-7.42,3.18-8.16,7.16-11.03,59.31-36.96,78.14-44.65,82.49-6.53,3.7-13.04,4.95-17.4,3.34-21.83-8.1-20.68-35.77-20.63-36.91.15-2.53-.81-4.99-2.62-6.78-1.65-1.61-3.87-2.51-6.16-2.51-.22,0-.45,0-.68.03-7.49.58-29.82-.27-34.12-11.46-4.56-11.86-4.56-22.11-.04-31.32,12.38-25.2,56.67-38.45,80.47-45.57,3.88-1.16,6.47-4.83,6.25-8.88-.22-4.05-3.18-7.42-7.16-8.15-59.31-11.04-78.13-36.97-82.49-44.65-3.7-6.54-4.95-13.04-3.34-17.4,8.11-21.83,35.76-20.68,36.91-20.63,2.53.14,5.01-.81,6.78-2.62,1.77-1.82,2.68-4.32,2.48-6.85-.61-7.48.18-29.78,11.46-34.11,11.86-4.55,22.11-4.56,31.32-.03,25.2,12.38,38.45,56.67,45.57,80.47,1.17,3.88,4.83,6.46,8.88,6.25,4.05-.22,7.42-3.18,8.15-7.16,11.04-59.31,36.97-78.14,44.65-82.49,6.54-3.7,13.04-4.95,17.4-3.34,21.83,8.1,20.68,35.76,20.63,36.91-.15,2.53.82,4.99,2.62,6.78,1.81,1.77,4.31,2.67,6.84,2.48,7.49-.59,29.81.27,34.12,11.46,4.56,11.88,4.6,22.08.13,31.18-11.95,24.31-54.48,37.04-79.89,44.65-3.88,1.16-6.46,4.83-6.25,8.87.22,4.05,3.18,7.42,7.16,8.16,56.73,10.56,75.96,34.8,81.6,44.74,3.92,6.92,5.25,13.78,3.55,18.37-8.1,21.83-35.77,20.68-36.9,20.63Z"/>
      <path class="cls-3" d="M923.62,852.3c-2.1,0-4.2-.75-5.88-2.26-3.6-3.25-3.88-8.8-.63-12.4l39.79-44.08c3.25-3.6,8.8-3.88,12.4-.63,3.6,3.25,3.88,8.8.63,12.4l-39.79,44.08c-1.73,1.92-4.12,2.9-6.52,2.9Z"/>
      <path class="cls-3" d="M973.17,841.77c-2.8,0-5.55-1.34-7.25-3.83-2.74-4-1.71-9.46,2.29-12.2l23.4-15.99c4-2.73,9.46-1.71,12.2,2.3,2.74,4,1.71,9.46-2.29,12.2l-23.4,15.99c-1.51,1.03-3.24,1.53-4.94,1.53Z"/>
      <path class="cls-3" d="M932.3,805.06c-.94,0-1.9-.15-2.84-.47-4.59-1.57-7.04-6.56-5.47-11.14l9.16-26.83c1.57-4.59,6.56-7.03,11.14-5.47,4.59,1.57,7.04,6.56,5.47,11.14l-9.16,26.83c-1.25,3.65-4.65,5.94-8.3,5.94Z"/>
      <path class="cls-3" d="M843.26,856.2c-2.1,0-4.2-.75-5.88-2.26l-44.08-39.79c-3.6-3.25-3.88-8.8-.63-12.4,3.25-3.6,8.8-3.88,12.4-.63l44.08,39.79c3.6,3.25,3.88,8.8.63,12.4-1.73,1.92-4.12,2.9-6.52,2.9Z"/>
      <path class="cls-3" d="M832.74,806.66c-2.8,0-5.55-1.34-7.25-3.83l-15.99-23.4c-2.74-4-1.71-9.46,2.29-12.2,4-2.74,9.46-1.71,12.2,2.29l15.99,23.4c2.74,4,1.71,9.46-2.29,12.2-1.51,1.04-3.24,1.53-4.94,1.53Z"/>
      <path class="cls-3" d="M796.02,847.52c-.94,0-1.9-.15-2.84-.47l-26.83-9.16c-4.59-1.57-7.04-6.56-5.47-11.14s6.56-7.03,11.14-5.47l26.83,9.16c4.59,1.57,7.04,6.56,5.47,11.14-1.25,3.65-4.65,5.94-8.3,5.94Z"/>
      <path class="cls-3" d="M807.37,980.64c-2.1,0-4.2-.75-5.88-2.26-3.6-3.25-3.88-8.8-.63-12.4l39.79-44.08c3.25-3.6,8.8-3.88,12.4-.63,3.6,3.25,3.88,8.8.63,12.4l-39.79,44.08c-1.73,1.92-4.12,2.9-6.52,2.9Z"/>
      <path class="cls-3" d="M774.23,963.08c-2.8,0-5.55-1.34-7.25-3.83-2.74-4-1.71-9.46,2.29-12.2l23.41-15.99c4-2.74,9.46-1.71,12.2,2.3,2.74,4,1.71,9.46-2.29,12.2l-23.41,15.99c-1.51,1.03-3.24,1.53-4.94,1.53Z"/>
      <path class="cls-3" d="M829.32,1010.63c-.94,0-1.9-.15-2.84-.47-4.59-1.57-7.04-6.56-5.47-11.14l9.16-26.83c1.57-4.59,6.56-7.03,11.14-5.47,4.59,1.57,7.04,6.56,5.47,11.14l-9.16,26.83c-1.25,3.65-4.65,5.94-8.3,5.94Z"/>
      <path class="cls-3" d="M971.6,972.44c-2.1,0-4.2-.75-5.88-2.26l-44.08-39.79c-3.6-3.25-3.88-8.8-.63-12.4,3.25-3.6,8.8-3.88,12.4-.63l44.08,39.79c3.6,3.25,3.88,8.8.63,12.4-1.73,1.92-4.12,2.9-6.52,2.9Z"/>
      <path class="cls-3" d="M954.06,1005.6c-2.8,0-5.55-1.34-7.25-3.83l-15.99-23.41c-2.74-4-1.71-9.46,2.29-12.2,4-2.73,9.46-1.71,12.2,2.3l15.99,23.41c2.74,4,1.71,9.46-2.29,12.2-1.51,1.03-3.24,1.53-4.94,1.53Z"/>
      <path class="cls-3" d="M1001.59,950.5c-.94,0-1.9-.15-2.84-.47l-26.83-9.16c-4.59-1.57-7.04-6.56-5.47-11.14,1.57-4.59,6.56-7.03,11.14-5.47l26.83,9.16c4.59,1.57,7.04,6.56,5.47,11.14-1.25,3.65-4.65,5.94-8.3,5.94Z"/>
      <path class="cls-3" d="M897.49,920.56c-4.85,0-8.78-3.93-8.78-8.78,0-4.29,3.08-7.86,7.15-8.63,1.36-2.14,3.38-8.85,3.38-18.88s-2.02-16.73-3.38-18.87c-4.07-.76-7.15-4.34-7.15-8.63,0-4.85,3.93-8.78,8.78-8.78,11.91,0,19.31,13.9,19.31,36.28s-7.4,36.28-19.31,36.28ZM897.49,865.56h0,0Z"/>
      <path class="cls-3" d="M870.86,920.56c-11.91,0-19.31-13.9-19.31-36.28,0-8.14,1.1-15.86,3.1-21.73,4.31-12.65,12-14.54,16.21-14.54,4.85,0,8.78,3.93,8.78,8.78,0,4.29-3.08,7.86-7.15,8.63-1.36,2.14-3.38,8.85-3.38,18.87s2.02,16.74,3.38,18.88c4.07.76,7.15,4.34,7.15,8.63,0,4.85-3.93,8.78-8.78,8.78Z"/>
    </g>
  </g>
</svg>