<?xml version="1.0" encoding="UTF-8"?>
<svg id="Layer_1" data-name="Layer 1" xmlns="http://www.w3.org/2000/svg" xmlns:xlink="http://www.w3.org/1999/xlink" viewBox="0 0 313 60">
  <defs>
    <style>
      .cls-1, .cls-2, .cls-3, .cls-4, .cls-5, .cls-6, .cls-7, .cls-8, .cls-9, .cls-10, .cls-11, .cls-12, .cls-13 {
        stroke-width: 0px;
      }

      .cls-1, .cls-9 {
        fill: #fff;
      }

      .cls-1, .cls-10 {
        fill-rule: evenodd;
      }

      .cls-2 {
        fill: #2bbc5d;
      }

      .cls-3 {
        fill: #f79e1b;
      }

      .cls-14 {
        mask: url(#mask-2);
      }

      .cls-15 {
        mask: url(#mask-3);
      }

      .cls-4 {
        fill: #eb001b;
      }

      .cls-5 {
        fill: #fc3131;
      }

      .cls-6 {
        fill: #ff5a00;
      }

      .cls-7 {
        fill: #1434cb;
      }

      .cls-8 {
        fill: #333;
      }

      .cls-16 {
        mask: url(#mask-1);
      }

      .cls-17 {
        mask: url(#mask);
      }

      .cls-10, .cls-11 {
        fill: #94a3b8;
      }

      .cls-12 {
        fill: #fefefe;
      }

      .cls-13 {
        fill: #225e63;
      }
    </style>
    <mask id="mask" x="9.94" y="16.45" width="36.17" height="27.1" maskUnits="userSpaceOnUse">
      <g id="mask0_1_2" data-name="mask0 1 2">
        <path class="cls-9" d="M46.11,16.45H9.94v27.1h36.17v-27.1Z"/>
      </g>
    </mask>
    <mask id="mask-1" x="58.03" y="20.32" width="59.62" height="19.35" maskUnits="userSpaceOnUse">
      <g id="mask1_1_2" data-name="mask1 1 2">
        <path class="cls-9" d="M117.65,20.32h-59.62v19.35h59.62v-19.35Z"/>
      </g>
    </mask>
    <mask id="mask-2" x="134.54" y="24.19" width="93.41" height="11.61" maskUnits="userSpaceOnUse">
      <g id="mask2_1_2" data-name="mask2 1 2">
        <path class="cls-9" d="M227.94,24.19h-93.4v11.61h93.4v-11.61Z"/>
      </g>
    </mask>
    <mask id="mask-3" x="134.54" y="24.19" width="93.41" height="11.61" maskUnits="userSpaceOnUse">
      <g id="mask3_1_2" data-name="mask3 1 2">
        <path class="cls-9" d="M227.94,24.19h-93.4v11.61h93.4v-11.61Z"/>
      </g>
    </mask>
  </defs>
  <rect class="cls-8" x="0" y="-.02" width="312.99" height="60.03"/>
  <rect class="cls-9" x="56.6" y="18.38" width="65.13" height="23.24" rx="1.92" ry="1.92"/>
  <g>
    <g class="cls-17">
      <g>
        <path class="cls-9" d="M16.49,43.49v-1.8c0-.69-.43-1.14-1.18-1.14-.37,0-.78.12-1.06.51-.22-.33-.53-.51-1-.51-.31,0-.62.09-.87.42v-.36h-.65v2.88h.65v-1.59c0-.51.28-.75.71-.75s.65.27.65.75v1.59h.65v-1.59c0-.51.31-.75.71-.75.43,0,.65.27.65.75v1.59h.72ZM26.16,40.61h-1.06v-.87h-.65v.87h-.59v.57h.59v1.32c0,.66.28,1.05,1.02,1.05.28,0,.59-.09.81-.21l-.19-.54c-.19.12-.41.15-.56.15-.31,0-.43-.18-.43-.48v-1.29h1.06v-.57h0ZM31.69,40.55c-.37,0-.62.18-.78.42v-.36h-.65v2.88h.65v-1.62c0-.48.22-.75.62-.75.12,0,.28.03.41.06l.19-.6c-.13-.02-.31-.02-.44-.02ZM23.33,40.85c-.31-.21-.75-.3-1.21-.3-.75,0-1.24.36-1.24.93,0,.48.37.75,1.02.84l.31.03c.34.06.53.15.53.3,0,.21-.25.36-.68.36s-.78-.15-1-.3l-.31.48c.34.24.81.36,1.27.36.87,0,1.37-.39,1.37-.93,0-.51-.41-.78-1.02-.87l-.31-.03c-.28-.03-.5-.09-.5-.27,0-.21.22-.33.56-.33.37,0,.75.15.93.24l.28-.51ZM40.67,40.55c-.37,0-.62.18-.78.42v-.36h-.65v2.88h.65v-1.62c0-.48.22-.75.62-.75.12,0,.28.03.41.06l.19-.59c-.13-.03-.31-.03-.44-.03ZM32.34,42.05c0,.87.62,1.5,1.59,1.5.43,0,.75-.09,1.06-.33l-.31-.51c-.25.18-.5.27-.78.27-.53,0-.9-.36-.9-.93s.37-.9.9-.93c.28,0,.53.09.78.27l.31-.51c-.31-.24-.62-.33-1.06-.33-.96,0-1.59.63-1.59,1.5ZM38.37,42.05v-1.44h-.65v.36c-.22-.27-.53-.42-.93-.42-.84,0-1.49.63-1.49,1.5s.65,1.5,1.49,1.5c.43,0,.75-.15.93-.42v.36h.65v-1.44ZM35.97,42.05c0-.51.34-.93.9-.93.53,0,.9.39.9.93,0,.51-.37.93-.9.93-.56-.03-.9-.42-.9-.93ZM28.18,40.55c-.87,0-1.49.6-1.49,1.5s.62,1.5,1.52,1.5c.43,0,.87-.12,1.21-.39l-.31-.45c-.25.18-.56.3-.87.3-.41,0-.81-.18-.9-.69h2.2v-.24c.03-.93-.53-1.53-1.37-1.53ZM28.18,41.09c.41,0,.68.24.75.69h-1.55c.06-.39.34-.69.81-.69ZM44.36,42.05v-2.58h-.65v1.5c-.22-.27-.53-.42-.93-.42-.84,0-1.49.63-1.49,1.5s.65,1.5,1.49,1.5c.43,0,.75-.15.93-.42v.36h.65v-1.44ZM41.97,42.05c0-.51.34-.93.9-.93.53,0,.9.39.9.93,0,.51-.37.93-.9.93-.56-.03-.9-.42-.9-.93ZM20.16,42.05v-1.44h-.65v.36c-.22-.27-.53-.42-.93-.42-.84,0-1.49.63-1.49,1.5s.65,1.5,1.49,1.5c.43,0,.75-.15.93-.42v.36h.65v-1.44ZM17.74,42.05c0-.51.34-.93.9-.93.53,0,.9.39.9.93,0,.51-.37.93-.9.93-.56-.03-.9-.42-.9-.93Z"/>
        <path class="cls-6" d="M32.9,18.76h-9.79v16.96h9.79v-16.96Z"/>
        <path class="cls-4" d="M23.76,27.24c0-3.45,1.68-6.51,4.26-8.48-1.9-1.44-4.29-2.31-6.9-2.31-6.18,0-11.19,4.83-11.19,10.79s5,10.79,11.19,10.79c2.61,0,5-.87,6.9-2.31-2.58-1.95-4.26-5.04-4.26-8.48Z"/>
        <path class="cls-3" d="M46.11,27.24c0,5.96-5,10.79-11.19,10.79-2.61,0-5-.87-6.9-2.31,2.61-1.98,4.26-5.04,4.26-8.48s-1.68-6.51-4.26-8.48c1.89-1.44,4.29-2.31,6.9-2.31,6.19,0,11.19,4.86,11.19,10.79Z"/>
      </g>
    </g>
    <g class="cls-16">
      <path class="cls-7" d="M96.85,20.35c-4.23,0-8.01,2.19-8.01,6.24,0,4.64,6.7,4.96,6.7,7.3,0,.98-1.13,1.86-3.05,1.86-2.73,0-4.77-1.23-4.77-1.23l-.87,4.09s2.35,1.04,5.47,1.04c4.62,0,8.26-2.3,8.26-6.42,0-4.91-6.73-5.22-6.73-7.38,0-.77.92-1.61,2.84-1.61,2.16,0,3.93.89,3.93.89l.85-3.95s-1.92-.83-4.63-.83ZM58.16,20.65l-.1.6s1.78.33,3.38.98c2.06.74,2.21,1.18,2.56,2.52l3.79,14.59h5.08l7.82-18.69h-5.06l-5.02,12.71-2.05-10.77c-.19-1.23-1.14-1.94-2.31-1.94h-8.07ZM82.72,20.65l-3.97,18.69h4.83l3.96-18.69h-4.82ZM109.65,20.65c-1.17,0-1.78.62-2.23,1.71l-7.07,16.98h5.06l.98-2.83h6.17l.6,2.83h4.47l-3.9-18.69h-4.07ZM110.31,25.7l1.5,7.01h-4.02l2.52-7.01Z"/>
    </g>
    <path class="cls-5" d="M231.92,18.39h-102.35v23.23h102.35v-23.23Z"/>
    <g class="cls-14">
      <g class="cls-15">
        <g>
          <path class="cls-1" d="M136.64,26.1l-2.1.75v8.96h2.08l.02-3.33c.5.59,1.19,1.1,2.3,1.1,1.74,0,3.36-1.34,3.36-3.79s-1.64-3.82-3.36-3.82c-1.09,0-1.79.51-2.3,1.19v-1.05ZM138.4,27.73c.98,0,1.8.81,1.8,2.02s-.82,2.05-1.8,2.05-1.79-.81-1.79-2.02.81-2.05,1.79-2.05Z"/>
          <path class="cls-9" d="M151.66,26.1h2.1v1.2c.43-1.01,1.12-1.26,2.36-1.21v1.79h-.11c-1.39,0-2.24,1.1-2.24,2.85v2.71h-2.1v-7.34h0Z"/>
          <path class="cls-9" d="M158.04,31.35v-3.47h-.88v-1.78h.88v-1.15l2.1-.76v1.9h1.73v1.78h-1.73v3.13c0,.48.21.71.68.71.38,0,.74-.1,1.04-.26v1.67c-.44.26-.95.43-1.66.43-1.29,0-2.15-.51-2.15-2.21Z"/>
          <path class="cls-9" d="M162.77,26.1h2.1v1.04c.48-.61,1.12-1.18,2.18-1.18.97,0,1.69.43,2.08,1.17.65-.75,1.42-1.17,2.43-1.17,1.56,0,2.5.93,2.5,2.69v4.77h-2.1v-4.09c0-.98-.44-1.49-1.22-1.49s-1.26.51-1.26,1.49v4.09h-2.1v-4.09c0-.98-.44-1.49-1.23-1.49s-1.26.51-1.26,1.49v4.09h-2.1v-7.33h0Z"/>
          <path class="cls-9" d="M183.2,26.1h2.1v1.04c.48-.61,1.11-1.18,2.16-1.18,1.59,0,2.51,1.04,2.51,2.72v4.74h-2.1v-4.09c0-.98-.47-1.49-1.26-1.49s-1.31.51-1.31,1.49v4.09h-2.1v-7.33Z"/>
          <path class="cls-1" d="M194.44,25.95c-2.16,0-3.65,1.73-3.65,3.82,0,2.27,1.65,3.82,3.85,3.81.99,0,1.79-.28,2.42-.78-.18-.51-.6-1.64-.6-1.64-.58.52-1.09.75-1.79.75-.93,0-1.6-.5-1.8-1.44h5.14c.02-.18.03-.38.03-.54,0-2.07-1.13-3.97-3.6-3.97ZM194.44,27.63c.88,0,1.43.62,1.56,1.55h-3.15c.17-.94.72-1.55,1.6-1.55Z"/>
          <path class="cls-11" d="M201.26,29.77c0-2.09,1.62-3.82,3.87-3.82,1.03,0,1.76.28,2.36.75-.16.41-.65,1.77-.65,1.77-.45-.43-.89-.73-1.72-.73-1.05,0-1.79.91-1.79,2.02s.74,2.02,1.87,2.02c.7,0,1.18-.3,1.69-.78,0,0,.54,1.49.65,1.78-.6.49-1.34.8-2.44.8-2.21,0-3.84-1.69-3.84-3.81Z"/>
          <path class="cls-11" d="M216.68,26.1h2.1v1.04c.48-.61,1.12-1.18,2.17-1.18.97,0,1.69.43,2.08,1.17.65-.75,1.42-1.17,2.43-1.17,1.56,0,2.5.93,2.5,2.69v4.77h-2.1v-4.09c0-.98-.44-1.49-1.23-1.49s-1.26.51-1.26,1.49v4.09h-2.1v-4.09c0-.98-.44-1.49-1.22-1.49s-1.26.51-1.26,1.49v4.09h-2.1v-7.33h0Z"/>
          <path class="cls-11" d="M200.75,32.42c0,.64-.49,1.16-1.11,1.16s-1.11-.51-1.11-1.16.49-1.16,1.11-1.16,1.11.52,1.11,1.16Z"/>
          <path class="cls-1" d="M143.01,29.75c0,2.13,1.74,3.86,3.89,3.86s3.89-1.73,3.89-3.86-1.74-3.86-3.89-3.86-3.89,1.73-3.89,3.86ZM145.04,29.75c0-1.01.83-1.84,1.85-1.84s1.85.83,1.85,1.84-.83,1.84-1.85,1.84-1.85-.83-1.85-1.84Z"/>
          <path class="cls-1" d="M174.76,29.75c0,2.13,1.74,3.86,3.89,3.86s3.89-1.73,3.89-3.86-1.74-3.86-3.89-3.86-3.89,1.73-3.89,3.86ZM176.79,29.75c0-1.01.83-1.84,1.85-1.84s1.85.83,1.85,1.84-.83,1.84-1.85,1.84-1.85-.83-1.85-1.84Z"/>
          <path class="cls-10" d="M207.94,29.75c0,2.13,1.74,3.86,3.89,3.86s3.89-1.73,3.89-3.86-1.74-3.86-3.89-3.86-3.89,1.73-3.89,3.86ZM209.98,29.75c0-1.01.83-1.84,1.85-1.84s1.85.83,1.85,1.84-.83,1.84-1.85,1.84-1.85-.83-1.85-1.84Z"/>
        </g>
      </g>
    </g>
    <path class="cls-13" d="M284.15,32.52l.61.18c-.04.17-.1.31-.19.42-.09.11-.19.2-.33.25-.13.06-.29.09-.5.09-.24,0-.44-.03-.6-.1-.15-.07-.29-.19-.4-.37-.11-.17-.17-.4-.17-.67,0-.36.1-.64.3-.83.19-.2.48-.29.83-.29.29,0,.5.06.66.17s.28.28.36.52l-.61.13c-.02-.07-.04-.12-.07-.15-.04-.05-.08-.09-.14-.12-.06-.03-.12-.04-.18-.04-.15,0-.27.06-.36.19-.06.09-.09.24-.09.43,0,.24.04.41.11.5.07.09.18.14.32.14s.23-.04.29-.11c.08-.09.13-.19.16-.33Z"/>
    <path class="cls-13" d="M285,32.32c0-.36.1-.64.31-.83.2-.2.49-.3.85-.3s.66.1.87.29c.2.2.31.47.31.82,0,.26-.04.47-.13.63-.09.16-.21.29-.39.38-.16.09-.38.14-.62.14s-.46-.04-.63-.12c-.16-.08-.29-.2-.41-.38-.11-.18-.15-.37-.15-.63ZM285.7,32.32c0,.22.04.38.12.48.08.1.19.15.35.15s.27-.05.35-.14c.08-.1.12-.27.12-.51,0-.21-.04-.36-.13-.45-.08-.1-.2-.14-.35-.14s-.26.05-.34.15c-.08.08-.12.24-.12.46Z"/>
    <path class="cls-13" d="M287.69,31.23h.91l.35,1.33.35-1.33h.91v2.19h-.57v-1.67l-.44,1.67h-.51l-.44-1.67v1.67h-.57v-2.19h.02Z"/>
    <path class="cls-13" d="M290.64,31.23h1.15c.26,0,.44.06.56.18.12.12.18.28.18.5s-.07.4-.2.52c-.13.13-.35.19-.62.19h-.38v.81h-.69v-2.2ZM291.33,32.16h.17c.13,0,.22-.02.29-.07.05-.05.08-.1.08-.17s-.02-.13-.07-.18c-.05-.05-.13-.07-.27-.07h-.19v.49h0Z"/>
    <path class="cls-13" d="M292.9,31.23h.69v1.65h1.08v.54h-1.77v-2.19Z"/>
    <path class="cls-13" d="M295.02,31.23h.69v2.19h-.69v-2.19Z"/>
    <path class="cls-13" d="M297.58,33.04h-.78l-.11.36h-.7l.84-2.19h.75l.85,2.19h-.72l-.12-.36ZM297.44,32.58l-.24-.78-.24.78h.49Z"/>
    <path class="cls-13" d="M298.64,31.23h.64l.84,1.21v-1.21h.65v2.19h-.65l-.83-1.2v1.2h-.65v-2.19Z"/>
    <path class="cls-13" d="M301.08,31.23h2.11v.54h-.7v1.65h-.69v-1.65h-.7v-.54h-.01Z"/>
    <path class="cls-13" d="M275.82,34.55l2.01-.62-.65-1.41c-.48.59-.96,1.34-1.35,2.03ZM275.14,28.11l-3.93-8.54-28.76,1.59,7.97,21.22,15.34-4.72c-.98-1.37-1.33-3-.2-3.8,1.26-.89,3.17.14,4.38,1.6,1.17-1.91,4.46-6.35,5.21-7.35Z"/>
    <path class="cls-12" d="M270.32,25.74c1.2,0,2.18-.89,2.18-2.01s-.98-2.01-2.18-2.01-2.18.89-2.18,2.01.98,2.01,2.18,2.01ZM268.53,26.6h3.56v9.09h-3.56v-9.09Z"/>
    <path class="cls-12" d="M266.77,29.25s.05,0,.05-.03v-2.3s-.02-.06-.05-.08c0,0-.47-.3-1.89-.38-.07-.04-1.32-.05-1.66,0-5.19.41-5.39,4.07-5.39,4.23v.89c0,.11,0,3.85,5.39,4.18.53.04,1.56,0,1.66,0,1.24,0,2.1-.37,2.1-.37.03-.01.05-.04.05-.07v-2.16s-.02-.04-.04-.02c0,0-.39.3-2.08.47-.48.05-.71.03-.89,0-2.4-.4-2.51-2.11-2.51-2.11,0-.03,0-.08,0-.1v-.66s0-.08,0-.1c0,0,.16-1.84,2.51-2.04h.89c1.03.13,1.86.63,1.86.63Z"/>
    <path class="cls-12" d="M247.94,35.66s.02.05.05.05h3.47s.05-.02.05-.05v-2.64s.02-.05.05-.05c0,0,5.55.39,5.55-3.24,0-2.87-3.48-3.18-4.62-3.13h-4.5s-.05.02-.05.05v9.01ZM251.46,30.95v-2.37h.85s1.23.05,1.33.87c.02.06.02.47,0,.49-.16.96-1.23,1.01-1.23,1.01h-.96Z"/>
    <path class="cls-2" d="M270.42,40.08c.29,0,.51,0,.88-.16,1.26-.65,5.53-10.81,10.02-13.94.03-.02.06-.05.08-.08.03-.04.03-.08.03-.08,0,0,0-.21-.66-.21-4-.11-8.16,8.09-10.35,11.33-.03.04-.17,0-.17,0,0,0-1.46-1.69-2.74-2.33-.03,0-.17-.06-.33-.05-.1,0-.69.12-.97.4-.33.34-.32.53-.32.93,0,.03.02.17.06.24.32.54,1.73,2.44,2.9,3.5.17.13.45.46,1.56.46Z"/>
    <path class="cls-13" d="M282.5,22.91h3.33c.66,0,1.19.09,1.59.26.41.18.74.43,1,.75.26.33.46.71.57,1.13.12.43.18.88.18,1.37,0,.76-.09,1.34-.26,1.76-.17.42-.42.76-.73,1.05-.32.28-.65.47-1.01.57-.49.13-.94.19-1.33.19h-3.33v-7.07ZM284.74,24.51v3.86h.55c.47,0,.8-.05,1-.15.19-.1.35-.28.47-.53.11-.25.17-.67.17-1.23,0-.76-.12-1.26-.38-1.54-.25-.28-.66-.42-1.25-.42h-.56Z"/>
    <path class="cls-13" d="M289.79,27.65l2.14-.13c.05.34.14.6.28.77.23.29.56.43.99.43.32,0,.57-.07.74-.22.17-.15.26-.32.26-.51,0-.18-.08-.35-.24-.5s-.55-.28-1.15-.41c-.99-.22-1.68-.51-2.11-.86-.43-.36-.63-.81-.63-1.37,0-.37.11-.71.33-1.03.21-.33.54-.58.98-.76.44-.19,1.03-.28,1.78-.28.93,0,1.64.17,2.12.51.49.34.77.87.87,1.61l-2.12.12c-.06-.32-.17-.55-.36-.7-.18-.15-.43-.22-.74-.22-.26,0-.46.05-.59.16-.13.11-.19.24-.19.4,0,.11.05.22.16.31.1.09.36.18.75.26.98.21,1.68.42,2.11.63.43.21.73.48.93.78.19.31.29.67.29,1.05,0,.46-.13.87-.39,1.25-.25.39-.62.68-1.08.87-.46.2-1.05.3-1.75.3-1.23,0-2.09-.23-2.57-.7-.47-.47-.73-1.05-.8-1.77Z"/>
    <path class="cls-13" d="M296.94,27.65l2.14-.13c.05.34.14.6.29.77.23.29.56.43.99.43.32,0,.57-.07.74-.22.17-.15.26-.32.26-.51,0-.18-.08-.35-.24-.5-.16-.15-.55-.28-1.15-.41-.99-.22-1.68-.51-2.11-.86-.42-.36-.63-.81-.63-1.37,0-.37.11-.71.32-1.03.21-.33.54-.58.98-.76.44-.19,1.03-.28,1.78-.28.93,0,1.64.17,2.12.51.49.34.77.87.86,1.61l-2.12.12c-.06-.32-.17-.55-.36-.7-.18-.15-.43-.22-.74-.22-.27,0-.46.05-.59.16-.13.11-.19.24-.19.4,0,.11.05.22.16.31.1.09.35.18.75.26.98.21,1.68.42,2.11.63.43.21.73.48.93.78.19.31.29.67.29,1.05,0,.46-.13.87-.39,1.25-.25.39-.62.68-1.08.87-.46.2-1.05.3-1.75.3-1.23,0-2.09-.23-2.57-.7-.48-.47-.74-1.05-.8-1.77Z"/>
  </g>
</svg>